<?xml version="1.0" standalone="no"?>
<!DOCTYPE svg PUBLIC "-//W3C//DTD SVG 20010904//EN"
 "http://www.w3.org/TR/2001/REC-SVG-20010904/DTD/svg10.dtd">
<svg version="1.0" xmlns="http://www.w3.org/2000/svg"
 width="103.000000pt" height="103.000000pt" viewBox="0 0 103.000000 103.000000"
 preserveAspectRatio="xMidYMid meet">
<metadata>
Created by potrace 1.14, written by Peter Selinger 2001-2017
</metadata>
<g transform="translate(0.000000,103.000000) scale(0.100000,-0.100000)"
fill="#000000" stroke="none">
<path d="M515 965 c0 -38 4 -64 10 -62 6 1 9 10 9 20 -1 18 -1 18 34 22 13 1
22 -3 22 -11 0 -9 11 -14 30 -14 32 0 37 8 18 29 -10 11 -10 14 0 18 23 9 12
23 -18 23 -16 0 -30 5 -30 10 0 6 -11 10 -24 10 -14 0 -28 5 -31 10 -14 23
-21 6 -20 -55z"/>
<path d="M450 861 c-98 -32 -167 -111 -185 -210 l-5 -31 260 0 260 0 -5 31
c-14 80 -69 155 -139 191 -44 22 -145 33 -186 19z"/>
<path d="M163 588 c2 -7 10 -12 16 -10 6 1 11 -10 12 -25 0 -16 0 -117 1 -226
l0 -198 35 3 35 3 -1 178 -2 177 36 0 35 0 0 -179 0 -179 40 0 40 -1 0 180 0
179 35 0 35 0 0 -180 0 -181 40 3 40 2 0 178 0 178 35 0 35 0 0 -180 0 -180
40 0 40 0 0 180 0 180 35 0 35 0 0 -179 0 -179 34 0 35 0 -1 213 c-1 205 3
242 23 230 5 -4 9 1 9 9 0 14 -41 16 -361 16 -284 0 -360 -3 -356 -12z"/>
<path d="M61 103 c-9 -7 -11 -13 -6 -14 6 -1 216 -2 468 -3 388 -1 457 1 455
13 -3 12 -75 14 -452 15 -339 1 -453 -2 -465 -11z"/>
<path d="M20 62 c-6 -2 -10 -17 -10 -33 l0 -29 510 0 510 0 0 33 0 32 -500 0
c-275 0 -505 -1 -510 -3z"/>
</g>
</svg>
